

		
	
                <svg xmlns="http://www.w3.org/2000/svg" xml:space="preserve" version="1.1" style="shape-rendering:geometricPrecision; text-rendering:geometricPrecision; image-rendering:optimizeQuality; fill-rule:evenodd; clip-rule:evenodd" viewBox="0 0 3543.31 3937.01" width="75" height="75" xmlns:xlink="http://www.w3.org/1999/xlink" xmlns:xodm="http://www.corel.com/coreldraw/odm/2003">
				
				<style type="text/css">
svg {
    width: 150px;
    height: 150px;
}

svg {
    background-color: transparent
}

svg .dot,svg .line {
    fill: #11aecf
}

svg * {
    animation: shine 1.5s ease-in-out forwards;
    animation-delay: 2.5s
}

.dot {
    opacity: 0;
    animation: fadeIn 1.5s ease-in forwards
}

.dot.dot1 {
    animation-delay: 0.2s
}

.dot.dot2 {
    animation-delay: 0.4s
}

.dot.dot3 {
    animation-delay: 0.6s
}

.dot.dot4 {
    animation-delay: 0.8s
}

.dot.dot5 {
    animation-delay: 1s
}

.line {
    fill-opacity: 0;
    stroke-width: 0.2;
    stroke-dasharray: 800;
    stroke-dashoffset: 800;
    animation: lineDraw 1s ease-in-out forwards;
}

.lineD2 {
    animation: lineDraw2 1.5s ease-in-out forwards infinite;
}


.line.line1 {
    animation-delay: 0s
}

.line.line2 {
    animation-delay: 0.2s
}

.line.line3 {
    animation-delay: 0.5s
}

.line.line4 {
    animation-delay: 0.7s
}

.line.line5 {
    animation-delay: 0.9s
}

.line.line6 {
    animation-delay: 1.1s
}

.line.line7 {
    animation-delay: 1.3s
}

.line.line8 {
    animation-delay: 1.5s
}

.lineD2.line1 {
    animation-delay: 2s
}

.lineD2.line2 {
    animation-delay: 2.3s
}

.lineD2.line3 {
    animation-delay: 2.6s
}

.lineD2.line4 {
    animation-delay: 2.9s
}

.lineD2.line5 {
    animation-delay: 3.2s
}

.lineD2.line6 {
    animation-delay: 3.5s
}

.lineD2.line7 {
    animation-delay: 3.8s
}

.lineD2.line8 {
    animation-delay: 4.1s
}

.glow {
    animation: glow 1.5s forwards infinite;
    fill: #11aecf;
    opacity: 0
}

.glow.glow1 {
    animation-delay: 0.4s
}

.glow.glow2 {
    animation-delay: 0.7s
}

.glow.glow3 {
    animation-delay: 1s
}

.glow.glow4 {
    animation-delay: 1.3s
}

.glow.glow5 {
    animation-delay: 1.6s
}

@keyframes fadeIn {
    0% {
        opacity: 0
    }

    to {
        opacity: 1
    }
}

@keyframes lineDraw {
    0% {
        stroke-dashoffset: 800
    }

    80% {
        stroke-dashoffset: 0;
        fill-opacity: 0
    }

    to {
        stroke-dashoffset: 0;
        fill-opacity: 1
    }
}

@keyframes lineDraw2 {
    0% {

		fill-opacity: 0
        
    }
	
    to {
     
        fill-opacity: 1
    }
}

@keyframes glow {
    0% {
        filter: blur(0px);
        opacity: 0
    }

    50% {
        filter: blur(180px);
        opacity: 1
    }

    to {
        filter: blur(0px);
        opacity: 1
    }
}

@keyframes shine {
    0% {
        filter: drop-shadow(1px 1px 0 #fffff)
    }

    50% {
        filter: drop-shadow(1px 1px 100px #fffff)
    }

    to {
        filter: drop-shadow(1px 1px 0 #fffff)
    }
}

			
		</style>
                <g id="logo-group">
                <metadata id="meta-layer" />



                <polygon class="line line1 lineD2" stroke="#000000" points="551.32,2523.46 1762.37,460.7 1801.78,480.39 667.32,2577.64 " />



                <polygon class="line line2 lineD2" points="2803.94,1652.09 580.86,2543.19 635.01,2641.65 " />



                <polygon class="line line3 lineD2" points="630.08,2513.64 3086.68,2789.35 3087.89,2812.7 575.94,2621.91 " />



                <polygon class="line line4 lineD2" points="649.79,2553.01 1826.37,3537.63 594.73,2630.57 " />



                <path class="line line5 lineD2" d="M1812.67 495.46c-3.15,9.42 28.47,3047.11 28.47,3047.11l-85.72 -3041.64 57.25 -5.47z" />



                <polygon class="line line5 lineD2" points="1816.53,524.74 3087.89,2812.7 3084.54,2838.55 1762.38,529.65 " />



                <path class="line line6 lineD2" d="M1789.77 444.73c4.94,14.75 1014.47,1208.31 1014.47,1208.31l-1056.93 -1169.53 42.46 -38.78z" />



                <path class="line line7 lineD2" d="M2809.76 1657.68c4.93,14.75 300.01,1151.96 300.01,1151.96l-25.24 28.9 -274.78 -1180.86z" />



                <path class="line line8 lineD2" d="M1860.84 3537.63c21.21,-8.65 1225.85,-748.29 1225.85,-748.29l17.54 33.21 -1230.44 725.56 -12.94 -10.47z" />







				<!-- Glow Shadow -->
                <path class="glow glow1" d="M913.49 2562.84c0,157.71 -127.83,285.54 -285.56,285.54 -157.68,0 -285.52,-127.83 -285.52,-285.54 0,-157.65 127.83,-285.5 285.52,-285.5 157.72,0 285.56,127.85 285.56,285.5z" />



				<!-- For Ground dot -->
                <path class="dot dot1" d="M913.49 2562.84c0,157.71 -127.83,285.54 -285.56,285.54 -157.68,0 -285.52,-127.83 -285.52,-285.54 0,-157.65 127.83,-285.5 285.52,-285.5 157.72,0 285.56,127.85 285.56,285.5z" />







                <path class="glow glow2" d="M1962.08 473.04c0,110.11 -89.25,199.41 -199.37,199.41 -110.13,0 -199.38,-89.29 -199.38,-199.41 0,-110.11 89.25,-199.36 199.38,-199.36 110.12,0 199.37,89.25 199.37,199.36z" />



                <path class="dot dot2" d="M1962.08 473.04c0,110.11 -89.25,199.41 -199.37,199.41 -110.13,0 -199.38,-89.29 -199.38,-199.41 0,-110.11 89.25,-199.36 199.38,-199.36 110.12,0 199.37,89.25 199.37,199.36z" />







                <path class="glow glow3" d="M2918.41 1657.03c0,63.9 -51.81,115.68 -115.7,115.68 -63.91,0 -115.68,-51.78 -115.68,-115.68 0,-63.9 51.76,-115.68 115.68,-115.68 63.89,0 115.7,51.78 115.7,115.68z" />



                <path class="dot dot3" d="M2918.41 1657.03c0,63.9 -51.81,115.68 -115.7,115.68 -63.91,0 -115.68,-51.78 -115.68,-115.68 0,-63.9 51.76,-115.68 115.68,-115.68 63.89,0 115.7,51.78 115.7,115.68z" />







                <path class="glow glow4" d="M3239.63 2811.46c0,82.94 -67.22,150.18 -150.17,150.18 -82.92,0 -150.13,-67.24 -150.13,-150.18 0,-82.9 67.21,-150.13 150.13,-150.13 82.94,0 150.17,67.22 150.17,150.13z" />



                <path class="dot dot4" d="M3239.63 2811.46c0,82.94 -67.22,150.18 -150.17,150.18 -82.92,0 -150.13,-67.24 -150.13,-150.18 0,-82.9 67.21,-150.13 150.13,-150.13 82.94,0 150.17,67.22 150.17,150.13z" />







                <path class="glow glow5" d="M1957.18 3527.77c0,67.99 -55.11,123.07 -123.08,123.07 -67.98,0 -123.09,-55.08 -123.09,-123.07 0,-68 55.11,-123.07 123.09,-123.07 67.97,0 123.08,55.07 123.08,123.07z" />



                <path class="dot dot5" d="M1957.18 3527.77c0,67.99 -55.11,123.07 -123.08,123.07 -67.98,0 -123.09,-55.08 -123.09,-123.07 0,-68 55.11,-123.07 123.09,-123.07 67.97,0 123.08,55.07 123.08,123.07z" />



			</g>
		</svg>
           