<svg id="Layer_1" data-name="Layer 1" xmlns="http://www.w3.org/2000/svg" xmlns:xlink="http://www.w3.org/1999/xlink" viewBox="0 0 250 28"><defs><style>.cls-1,.cls-4{fill:#fff;}.cls-2{fill:#11aecf;}.cls-2,.cls-3,.cls-4{fill-rule:evenodd;}.cls-3{fill:#01accd;}.cls-5{fill:url(#linear-gradient);}</style><linearGradient id="linear-gradient" x1="168" y1="1653.52" x2="189.63" y2="1653.52" gradientTransform="matrix(1, 0, 0, -1, 0, 1667.33)" gradientUnits="userSpaceOnUse"><stop offset="0" stop-color="#01accd"/><stop offset="0.12" stop-color="#32bbd6"/><stop offset="0.3" stop-color="#71cde1"/><stop offset="0.48" stop-color="#a6ddea"/><stop offset="0.64" stop-color="#cbebf2"/><stop offset="0.78" stop-color="#e8f6f8"/><stop offset="0.91" stop-color="#f8fcff"/><stop offset="1" stop-color="#fff"/></linearGradient></defs><rect class="cls-1" x="200.83" y="3.19" width="1.97" height="21.38"/><path class="cls-2" d="M22.78,19.8h-.15c-.5-1.95-1.48-5.7-1.93-7.43a.94.94,0,0,0,.66-.91,1,1,0,0,0-1.55-.75c-1.42-1.68-5-5.88-6.75-8a1.63,1.63,0,0,0,.38-1,1.66,1.66,0,1,0-3.31,0,1.64,1.64,0,0,0,.77,1.39l-8,13.63a2.25,2.25,0,0,0-.52-.07,2.37,2.37,0,1,0,1.47,4.22l7.65,5.63A1,1,0,0,0,12.38,28a1,1,0,0,0,1-1,.78.78,0,0,0,0-.22l8.42-5A1.24,1.24,0,0,0,24,21,1.24,1.24,0,0,0,22.78,19.8Zm-18-1c0-.09,0-.16,0-.24l7.39-3.37.13,4.45Zm7.57-3.71,5.48-2.5L22,20a1.27,1.27,0,0,0-.46.69l-9.22-1C12.34,18.25,12.33,16.69,12.31,15.13Zm.08-11.94,5.34,9.32-5.42,2.17c-.05-4.57-.09-9.18-.11-11.43A.6.6,0,0,0,12.39,3.19Zm10,16.66-.25.11L18,12.52l1.49-.68a1,1,0,0,0,.89.59.84.84,0,0,0,.27,0Zm-3-8.38a1.14,1.14,0,0,0,.05.33L18,12.41,12.74,3l0,0,7,7.76A1,1,0,0,0,19.45,11.47ZM11.29,3.23a1.5,1.5,0,0,0,.47.08l.33,11.46L4.45,17.83a2.46,2.46,0,0,0-.66-.74Zm.24,23.18L4.3,20.36a2.55,2.55,0,0,0,.34-.68l7.6.57L12.4,26h0A1,1,0,0,0,11.53,26.41Zm1.8.22a1,1,0,0,0-.91-.67c0-1.21,0-3.27-.06-5.7l9.18.7V21a1.35,1.35,0,0,0,.1.5Z"/><path class="cls-3" d="M40.58,24.52,36.84,14V24.52h-2V3.12h2v9.23l3.61-9.23h2.13l-4,9.75,4.31,11.64Z"/><path class="cls-3" d="M56.81,24.52,53.11,8.89q0,2.44,0,4.74V24.52H51.42V3.12h2.37L57.07,18.8c0-1.48,0-2.92,0-4.33V3.12h1.74v21.4Z"/><path class="cls-3" d="M72.8,6.52c0-1.09-.47-1.64-1.41-1.64S70,5.43,70,6.52V21.11c0,1.13.45,1.69,1.37,1.69s1.41-.56,1.41-1.69ZM68,6.52q0-3.64,3.35-3.64c2.26,0,3.38,1.21,3.38,3.64V21.11c0,2.43-1.12,3.64-3.38,3.64S68,23.54,68,21.11Z"/><path class="cls-3" d="M91.13,24.52c-.09-.77-.18-1.65-.28-2.64s-.21-2-.32-3.11-.2-2.15-.31-3.22-.19-2.08-.27-3l-.21-2.4c-.06-.69-.1-1.18-.12-1.5,0,.32-.05.81-.11,1.5s-.14,1.49-.22,2.4-.19,1.92-.29,3-.22,2.14-.34,3.22-.24,2.11-.35,3.11-.21,1.87-.32,2.64H85.57l-2.4-21.4h2.06c.1.88.21,1.86.32,2.93s.23,2.18.34,3.32.22,2.26.31,3.37.19,2.13.28,3.08.16,1.78.23,2.51.12,1.26.16,1.61c0-.35.09-.89.17-1.61s.17-1.57.27-2.51.21-2,.32-3.08.24-2.23.37-3.37.25-2.24.37-3.32.24-2,.34-2.93h2L92.3,19.94c0-.35.09-.89.17-1.61s.17-1.57.27-2.51.22-2,.33-3.08.23-2.23.36-3.37.26-2.24.38-3.32.23-2,.34-2.93h2.08l-2.71,21.4Z"/><path class="cls-3" d="M105,24.52V3.12h2V22.57h3.82v1.95Z"/><path class="cls-3" d="M119.6,24.52V3.12h5.67v2h-3.69v7.52h2.6v2h-2.6v8h3.83v2Z"/><path class="cls-3" d="M139.16,6.81a2,2,0,0,0-.35-1.25,1.25,1.25,0,0,0-1.05-.44h-1.35V22.57h1.35c.93,0,1.4-.57,1.4-1.69Zm-4.73,17.71V3.12h3.32a3.15,3.15,0,0,1,2.55,1,4,4,0,0,1,.83,2.7V20.87c0,2.43-1.12,3.65-3.38,3.65Z"/><path class="cls-3" d="M156.76,24.65l-.65-1.17a2,2,0,0,1-1,.95,3.76,3.76,0,0,1-1.58.32,4.67,4.67,0,0,1-1.29-.18,2.6,2.6,0,0,1-1-.61,3.09,3.09,0,0,1-.67-1.13,5.08,5.08,0,0,1-.25-1.72V6.55a4,4,0,0,1,.83-2.73,3.24,3.24,0,0,1,2.55-.94,3,3,0,0,1,2.48.94,4.21,4.21,0,0,1,.77,2.73v3.77h-1.77V6.55a1.92,1.92,0,0,0-.34-1.25,1.37,1.37,0,0,0-1.14-.42,1.27,1.27,0,0,0-1.08.42,2,2,0,0,0-.33,1.24V21.11a1.79,1.79,0,0,0,.39,1.26,1.3,1.3,0,0,0,1,.43c.94,0,1.45-.51,1.54-1.53V16.4h-1.64V14.53h3.53V24.65Z"/><path class="cls-4" d="M217.26,6.81a2,2,0,0,0-.35-1.25,1.23,1.23,0,0,0-1-.44h-1.35V22.57h1.35c.93,0,1.4-.57,1.4-1.69Zm-4.73,17.71V3.12h3.33a3.15,3.15,0,0,1,2.54,1,4,4,0,0,1,.84,2.69V20.87q0,3.64-3.38,3.65Z"/><path class="cls-4" d="M234.86,24.65l-.65-1.17a2,2,0,0,1-1,.94,3.63,3.63,0,0,1-1.59.33,4.6,4.6,0,0,1-1.28-.18,2.47,2.47,0,0,1-1-.61,2.83,2.83,0,0,1-.67-1.13,5.08,5.08,0,0,1-.25-1.72V6.55a4,4,0,0,1,.83-2.73,3.24,3.24,0,0,1,2.55-.94,3,3,0,0,1,2.48.94A4.15,4.15,0,0,1,235,6.55v3.77h-1.77V6.55a1.92,1.92,0,0,0-.34-1.25,1.4,1.4,0,0,0-1.14-.42,1.29,1.29,0,0,0-1.08.42,2,2,0,0,0-.32,1.25V21.11a1.81,1.81,0,0,0,.39,1.26,1.28,1.28,0,0,0,1,.43c.94,0,1.45-.51,1.54-1.53V16.4h-1.64V14.53h3.54V24.65Z"/><path class="cls-4" d="M244.46,24.52V3.12h5.67v2h-3.69v7.52H249v2h-2.6v8h3.82v2Z"/><path class="cls-5" d="M191.18,19.48q-.45-2.51-1-5.11a3.17,3.17,0,0,0,1.59-3.14V7a4,4,0,0,0-.92-3,4,4,0,0,0-2.8-.87h-3.25V13h-16.5V5.12H172v-2h-5.67v21.4h5.8V22.57h-3.83V14.81h16.5v9.71h2v-9.7h1.3a.85.85,0,0,0,.23,0q.45,2.45.81,4.83c.24,1.58.48,3.22.7,4.9H192C191.75,22.84,191.47,21.16,191.18,19.48Zm-1.38-8.23a1.93,1.93,0,0,1-.39,1.34,1.67,1.67,0,0,1-1.3.44H186.8V5.12h1.28a1.58,1.58,0,0,1,1.37.47,2.86,2.86,0,0,1,.34,1.63Z"/></svg>