<svg id="Layer_1" data-name="Layer 1" xmlns="http://www.w3.org/2000/svg" xmlns:xlink="http://www.w3.org/1999/xlink" viewBox="0 0 250 28"><defs><style>.cls-1{fill:#fff;}.cls-2,.cls-5{fill:#11aecf;}.cls-3{fill:#272727;}.cls-4{fill:url(#linear-gradient);}.cls-5{fill-rule:evenodd;}</style><linearGradient id="linear-gradient" x1="-342.74" y1="1295.93" x2="-342.65" y2="1295.93" gradientTransform="translate(-99595.44 314770.05) rotate(180) scale(291.15 242.88)" gradientUnits="userSpaceOnUse"><stop offset="0" stop-color="#282727"/><stop offset="1" stop-color="#10aed0"/></linearGradient></defs><rect class="cls-1" width="250" height="28"/><polygon class="cls-2" points="38.51 12.93 42.56 3.19 40.43 3.19 36.82 12.41 36.82 3.19 34.85 3.19 34.85 24.56 36.82 24.56 36.82 14.04 40.56 24.56 42.82 24.56 38.51 12.93"/><path class="cls-2" d="M56.77,24.56,53.08,9q0,2.45,0,4.74V24.56H51.39V3.19h2.37L57,18.85c0-1.47,0-2.91,0-4.33V3.19h1.74V24.56Z"/><path class="cls-2" d="M68,6.59Q68,2.95,71.34,3t3.38,3.64V21.16c0,2.42-1.13,3.64-3.38,3.64S68,23.58,68,21.16Zm4.76,0C72.75,5.5,72.28,5,71.34,5S70,5.5,70,6.59V21.16c0,1.13.45,1.69,1.37,1.69s1.41-.56,1.41-1.69Z"/><path class="cls-2" d="M91.06,24.56c-.09-.76-.19-1.64-.29-2.63s-.21-2-.31-3.11-.21-2.14-.31-3.22-.2-2.07-.28-3-.14-1.71-.2-2.4-.1-1.18-.12-1.49c0,.31-.06.81-.12,1.49s-.13,1.49-.22,2.4-.18,1.92-.28,3-.22,2.15-.34,3.22-.24,2.11-.35,3.11-.22,1.87-.33,2.63H85.5L83.11,3.19h2c.1.88.21,1.86.32,2.93s.23,2.18.34,3.31.22,2.26.31,3.37.19,2.13.28,3.07.16,1.78.23,2.51.12,1.26.16,1.61c0-.35.09-.88.17-1.61s.16-1.56.27-2.51.21-2,.32-3.07.24-2.23.37-3.37.25-2.23.37-3.31.24-2,.34-2.93h2L92.23,20c0-.35.09-.88.16-1.61s.17-1.56.28-2.51.21-2,.32-3.07.24-2.23.36-3.37.26-2.23.38-3.31.24-2,.34-2.93h2.08l-2.7,21.37Z"/><polygon class="cls-2" points="104.95 24.56 104.95 3.19 106.93 3.19 106.93 22.61 110.74 22.61 110.74 24.56 104.95 24.56"/><polygon class="cls-2" points="119.5 24.56 119.5 3.19 125.16 3.19 125.16 5.19 121.47 5.19 121.47 12.69 124.07 12.69 124.07 14.67 121.47 14.67 121.47 22.61 125.29 22.61 125.29 24.56 119.5 24.56"/><path class="cls-2" d="M134.3,24.56V3.19h3.33a3.15,3.15,0,0,1,2.54,1A4,4,0,0,1,141,6.85V20.93q0,3.63-3.37,3.63ZM139,6.87a2,2,0,0,0-.35-1.24,1.26,1.26,0,0,0-1.05-.44h-1.35V22.61h1.35c.93,0,1.4-.56,1.4-1.68Z"/><path class="cls-2" d="M156.61,24.69,156,23.52a2,2,0,0,1-1,.95,3.69,3.69,0,0,1-1.58.33,4.06,4.06,0,0,1-1.29-.19,2.33,2.33,0,0,1-1-.61,2.92,2.92,0,0,1-.68-1.13,5.23,5.23,0,0,1-.25-1.71V6.62A4,4,0,0,1,151,3.89,3.2,3.2,0,0,1,153.52,3a3,3,0,0,1,2.48.94,4.21,4.21,0,0,1,.77,2.73v3.76H155V6.62a1.92,1.92,0,0,0-.34-1.25A1.37,1.37,0,0,0,153.52,5a1.29,1.29,0,0,0-1.08.42,2.05,2.05,0,0,0-.32,1.25V21.16a1.83,1.83,0,0,0,.39,1.26,1.27,1.27,0,0,0,1,.43q1.4,0,1.53-1.53V16.46h-1.64V14.59h3.53v10.1Z"/><rect class="cls-3" x="200.83" y="3.19" width="1.97" height="21.38"/><path class="cls-3" d="M212.31,24.56V3.19h3.33a3.15,3.15,0,0,1,2.54,1A4,4,0,0,1,219,6.85V20.93q0,3.63-3.37,3.63ZM217,6.87a2,2,0,0,0-.35-1.24,1.23,1.23,0,0,0-1.05-.44h-1.35V22.61h1.35c.93,0,1.4-.56,1.4-1.68Z"/><path class="cls-3" d="M234.62,24.69,234,23.52a2,2,0,0,1-1,.95,3.66,3.66,0,0,1-1.58.33,4.06,4.06,0,0,1-1.29-.19,2.33,2.33,0,0,1-1-.61,2.92,2.92,0,0,1-.68-1.13,5.26,5.26,0,0,1-.24-1.71V6.62A4,4,0,0,1,229,3.89,3.2,3.2,0,0,1,231.53,3a3,3,0,0,1,2.48.94,4.21,4.21,0,0,1,.77,2.73v3.76H233V6.62a2,2,0,0,0-.33-1.25A1.4,1.4,0,0,0,231.53,5a1.26,1.26,0,0,0-1.07.42,2,2,0,0,0-.33,1.25V21.16a1.83,1.83,0,0,0,.39,1.26,1.27,1.27,0,0,0,1,.43q1.4,0,1.53-1.53V16.46H231.4V14.59h3.54v10.1Z"/><polygon class="cls-3" points="244.21 24.56 244.21 3.19 249.87 3.19 249.87 5.19 246.18 5.19 246.18 12.69 248.78 12.69 248.78 14.67 246.18 14.67 246.18 22.61 250 22.61 250 24.56 244.21 24.56"/><path class="cls-4" d="M190,14.43a3.16,3.16,0,0,0,1.58-3.14V7a3.94,3.94,0,0,0-.92-3,3.92,3.92,0,0,0-2.79-.87h-3.25v9.88H168.17V5.19h3.69v-2H166.2V24.56H172V22.61h-3.82V14.87h16.48v9.69h2V14.87h1.3a1,1,0,0,0,.23,0c.29,1.63.56,3.23.8,4.82s.48,3.21.7,4.89h2.16c-.26-1.68-.54-3.35-.83-5S190.37,16.17,190,14.43Zm-.42-3.11a1.92,1.92,0,0,1-.39,1.33,1.66,1.66,0,0,1-1.29.43h-1.3V5.19h1.27a1.64,1.64,0,0,1,1.38.46,3,3,0,0,1,.33,1.64Z"/><path class="cls-5" d="M22.78,19.8h-.15c-.5-1.95-1.48-5.7-1.93-7.43a.94.94,0,0,0,.66-.91,1,1,0,0,0-1.55-.75c-1.42-1.68-5-5.88-6.75-8a1.63,1.63,0,0,0,.38-1,1.66,1.66,0,1,0-3.31,0,1.64,1.64,0,0,0,.77,1.39l-8,13.63a2.25,2.25,0,0,0-.52-.07,2.37,2.37,0,1,0,1.47,4.22l7.65,5.63A1,1,0,0,0,12.38,28a1,1,0,0,0,1-1,.78.78,0,0,0,0-.22l8.42-5A1.24,1.24,0,0,0,24,21,1.24,1.24,0,0,0,22.78,19.8Zm-18-1c0-.09,0-.16,0-.24l7.39-3.37.13,4.45Zm7.57-3.71,5.48-2.5L22,20a1.27,1.27,0,0,0-.46.69l-9.22-1C12.34,18.25,12.33,16.69,12.31,15.13Zm.08-11.94,5.34,9.32-5.42,2.17c-.05-4.57-.09-9.18-.11-11.43A.6.6,0,0,0,12.39,3.19Zm10,16.66-.25.11L18,12.52l1.49-.68a1,1,0,0,0,.89.59.84.84,0,0,0,.27,0Zm-3-8.38a1.14,1.14,0,0,0,.05.33L18,12.41,12.74,3l0,0,7,7.76A1,1,0,0,0,19.45,11.47ZM11.29,3.23a1.5,1.5,0,0,0,.47.08l.33,11.46L4.45,17.83a2.46,2.46,0,0,0-.66-.74Zm.24,23.18L4.3,20.36a2.55,2.55,0,0,0,.34-.68l7.6.57L12.4,26h0A1,1,0,0,0,11.53,26.41Zm1.8.22a1,1,0,0,0-.91-.67c0-1.21,0-3.27-.06-5.7l9.18.7V21a1.35,1.35,0,0,0,.1.5Z"/></svg>